<svg width="26" height="25" xmlns="http://www.w3.org/2000/svg" xmlns:xlink="http://www.w3.org/1999/xlink" xmlns:svgjs="http://svgjs.com/svgjs" viewBox="0.482 0 25.036 25" fill="#535353"><svg xmlns="http://www.w3.org/2000/svg" width="26" height="25" viewBox="1.958 1 24.035 24"><path paint-order="stroke fill markers" fill-rule="evenodd" d="M24.407 25h-20.8c-.484 0-.939-.203-1.249-.558a1.651 1.651 0 0 1-.384-1.314L3.876 10.32C4.08 9.016 5.266 8 6.58 8h14.857c1.328 0 2.498 1.03 2.663 2.346l1.856 12.75c.1.471-.003.944-.288 1.308a1.58 1.58 0 0 1-1.26.596zm-20.39-2h19.9l-1.802-12.385c-.041-.325-.37-.615-.679-.615H6.58c-.322 0-.672.302-.723.621l-1.838 12.38zM17.982 7a1 1 0 0 1-1.001-1 3.005 3.005 0 0 0-6.01 0 1 1 0 0 1-2.002 0c0-2.757 2.247-5 5.008-5a5.009 5.009 0 0 1 5.006 5 1 1 0 0 1-1.001 1zm0 6.934a1 1 0 0 1-1.001-1V6a1 1 0 0 1 2.002 0v6.934a1 1 0 0 1-1.001 1zM9.969 14a1 1 0 0 1-1.001-1V6a1 1 0 0 1 2.003 0v7c0 .552-.449 1-1.002 1zm.001 1a2.004 2.004 0 0 1-2.004-2 2.004 2.004 0 0 1 4.006 0c0 1.103-.898 2-2.002 2zm0-2l-.003.001.003 1v-1zm8.014 2a2.005 2.005 0 0 1-2.006-2c0-1.103.9-2 2.006-2 1.103 0 2 .897 2 2s-.897 2-2 2zm0-2l-.005.002.005.998v-1z"/></svg></svg>