<svg width="26" height="23" xmlns="http://www.w3.org/2000/svg" xmlns:xlink="http://www.w3.org/1999/xlink" xmlns:svgjs="http://svgjs.com/svgjs" viewBox="0.57 0 24.861 23" fill="#535353"><svg xmlns="http://www.w3.org/2000/svg" width="26" height="23" viewBox="2.559 1 23.78 22"><path paint-order="stroke fill markers" fill-rule="evenodd" d="M23.756 12.476a.986.986 0 0 1-.697-.288 1.006 1.006 0 0 1-.008-1.414c1.743-1.779 1.743-4.67 0-6.446A4.386 4.386 0 0 0 19.902 3a4.39 4.39 0 0 0-3.152 1.329.986.986 0 0 1-1.402.006 1.006 1.006 0 0 1-.005-1.414 6.348 6.348 0 0 1 4.559-1.92 6.35 6.35 0 0 1 4.56 1.92c2.503 2.552 2.503 6.705 0 9.259a.983.983 0 0 1-.705.296zm-9.307-6.488a.986.986 0 0 1-.757-.353 1.008 1.008 0 0 1 .116-1.41l1.597-1.363a.986.986 0 0 1 1.397.117 1.007 1.007 0 0 1-.116 1.41l-1.597 1.363a.985.985 0 0 1-.64.236zm-9.307 6.488a.98.98 0 0 1-.704-.296c-2.506-2.554-2.506-6.707 0-9.259a6.35 6.35 0 0 1 4.56-1.92 6.35 6.35 0 0 1 4.56 1.92 1.006 1.006 0 0 1-.007 1.414.984.984 0 0 1-1.402-.006A4.386 4.386 0 0 0 8.999 3 4.39 4.39 0 0 0 5.845 4.33c-1.743 1.776-1.743 4.666 0 6.445a1.006 1.006 0 0 1-.006 1.414.986.986 0 0 1-.698.288zM14.448 6a.987.987 0 0 1-.643-.24l-1.596-1.374a1.007 1.007 0 0 1-.11-1.41.986.986 0 0 1 1.398-.112l1.595 1.375c.416.36.466.99.11 1.41a.985.985 0 0 1-.754.351zm0 17a2.762 2.762 0 0 1-2.06-.95l-8.015-9.943a1.004 1.004 0 0 1 .144-1.406.984.984 0 0 1 1.394.145l7.986 9.908c.26.292.81.328 1.132-.035l7.958-9.873a.985.985 0 0 1 1.394-.145c.425.348.49.978.144 1.406l-7.988 9.909c-.563.638-1.314.984-2.088.984z"/></svg></svg>