<svg width="103" height="30" xmlns="http://www.w3.org/2000/svg" xmlns:xlink="http://www.w3.org/1999/xlink" xmlns:svgjs="http://svgjs.com/svgjs" viewBox="0 0.35 103 29.3"><svg xmlns="http://www.w3.org/2000/svg" width="103" height="30" viewBox="1 1.988 102 29.016"><path paint-order="stroke fill markers" fill-rule="evenodd" d="M17.988 24.415c0 1.99-.738 3.585-2.213 4.787-1.476 1.201-3.35 1.802-5.62 1.802-1.512 0-3.09-.27-4.728-.808A13.954 13.954 0 0 1 1 27.812l2.497-3.528c2.119 1.627 4.376 2.44 6.773 2.44.73 0 1.31-.144 1.74-.43.429-.29.643-.671.643-1.146 0-.475-.297-.914-.89-1.314-.592-.4-1.45-.775-2.572-1.126-1.123-.35-1.98-.65-2.573-.9s-1.267-.614-2.024-1.09c-1.538-.95-2.307-2.358-2.307-4.222 0-1.864.756-3.384 2.27-4.561 1.513-1.176 3.467-1.764 5.864-1.764 2.396 0 4.792.8 7.189 2.402l-2.12 3.754c-1.765-1.2-3.525-1.802-5.277-1.802-1.753 0-2.63.475-2.63 1.426 0 .526.278.938.833 1.239.554.3 1.475.65 2.761 1.051 1.287.4 2.2.707 2.744.92.541.213 1.191.544 1.948.994 1.412.852 2.119 2.271 2.119 4.26zm11.841 1.595c1.892 0 3.595-.938 5.108-2.814l3.368 3.754c-2.624 2.701-5.462 4.054-8.513 4.054-3.053 0-5.632-.958-7.738-2.872-2.106-1.914-3.159-4.416-3.159-7.507 0-3.09 1.066-5.606 3.197-7.545 2.131-1.939 4.66-2.909 7.586-2.909 1.463 0 2.945.3 4.446.901 1.5.601 2.818 1.488 3.954 2.665l-2.952 3.829a6.726 6.726 0 0 0-2.402-1.802c-.946-.425-1.886-.638-2.819-.638-1.488 0-2.768.481-3.84 1.445-1.073.964-1.608 2.303-1.608 4.016 0 1.715.535 3.048 1.608 3.997 1.072.952 2.327 1.426 3.764 1.426zm15.663-6.193v10.887h-5.675V2.85h5.675v9.91c1.715-1.727 3.638-2.59 5.77-2.59 2.13 0 3.929.75 5.392 2.252 1.463 1.502 2.193 3.503 2.193 6.006v12.275h-5.674V19.668c0-3.103-1.148-4.654-3.443-4.654-1.135 0-2.125.407-2.97 1.218-.846.814-1.268 2.01-1.268 3.585zm36.586.789c0 2.928-1.022 5.393-3.065 7.394-2.043 2.002-4.61 3.004-7.699 3.004-3.09 0-5.656-1.002-7.7-3.004-2.042-2.001-3.064-4.466-3.064-7.394s1.022-5.399 3.065-7.414c2.043-2.013 4.61-3.02 7.7-3.02 3.088 0 5.655 1.007 7.698 3.02 2.043 2.015 3.065 4.486 3.065 7.414zM65.676 6.736c-.542-.537-.813-1.194-.813-1.97s.271-1.433.813-1.97c.542-.538 1.205-.808 1.987-.808.781 0 1.443.27 1.986.807a2.67 2.67 0 0 1 .814 1.97c0 .777-.272 1.434-.814 1.97-.543.54-1.205.809-1.986.809-.782 0-1.445-.27-1.987-.809zm.587 13.87c0 1.65.473 2.997 1.42 4.034.945 1.039 2.156 1.558 3.631 1.558 1.476 0 2.686-.52 3.632-1.558.946-1.037 1.419-2.383 1.419-4.034 0-1.652-.473-3.003-1.419-4.054-.946-1.05-2.156-1.577-3.632-1.577-1.475 0-2.686.526-3.632 1.577-.946 1.05-1.419 2.402-1.419 4.054zm6.715-13.87c-.542-.537-.813-1.194-.813-1.97s.271-1.433.813-1.97c.543-.538 1.205-.808 1.987-.808s1.444.27 1.986.807a2.67 2.67 0 0 1 .813 1.97c0 .777-.271 1.434-.813 1.97-.542.54-1.204.809-1.986.809s-1.444-.27-1.987-.809zm16.666 12.706v11.262H83.97V10.508h5.674v2.253c1.715-1.727 3.645-2.59 5.79-2.59 2.142 0 3.94.75 5.39 2.252 1.45 1.502 2.176 3.503 2.176 6.006v12.275h-5.675V19.292c0-3.102-1.148-4.654-3.443-4.654-1.135 0-2.125.407-2.97 1.22-.846.812-1.268 2.008-1.268 3.584z"/></svg></svg>