<svg width="26" height="25" xmlns="http://www.w3.org/2000/svg" xmlns:xlink="http://www.w3.org/1999/xlink" xmlns:svgjs="http://svgjs.com/svgjs" viewBox="0.491 0 25.018 25" fill="#535353"><svg xmlns="http://www.w3.org/2000/svg" width="26" height="25" viewBox="1.925 1 24.017 24"><path paint-order="stroke fill markers" fill-rule="evenodd" d="M10.931 19c-4.966 0-9.006-4.037-9.006-8.999 0-4.964 4.04-9 9.006-9s9.006 4.036 9.006 9c0 4.962-4.04 8.999-9.006 8.999zm0-16c-3.863 0-7.005 3.14-7.005 7.001 0 3.86 3.142 7 7.005 7s7.005-3.14 7.005-7-3.142-7-7.005-7zm14.01 22a.998.998 0 0 1-.708-.293l-8.35-8.344a1 1 0 1 1 1.416-1.414l8.35 8.344A.999.999 0 0 1 24.94 25z"/></svg></svg>